<?xml version="1.0" standalone="no"?><!DOCTYPE svg PUBLIC "-//W3C//DTD SVG 1.1//EN" "http://www.w3.org/Graphics/SVG/1.1/DTD/svg11.dtd"><svg xmlns:xlink="http://www.w3.org/1999/xlink" version="1.1" style="font-family:'lucida grande', 'lucida sans unicode', arial, helvetica, sans-serif;font-size:12px;" xmlns="http://www.w3.org/2000/svg" width="600" height="400"><desc>Created with Highstock 4.2.7</desc><defs><clipPath id="highcharts-5"><rect x="0" y="0" width="534" height="281"></rect></clipPath></defs><rect x="0" y="0" width="600" height="400" fill="#FFFFFF" class=" highcharts-background"></rect><g class="highcharts-grid"></g><g class="highcharts-grid"><path fill="none" d="M 56 327.5 L 590 327.5" stroke="#D8D8D8" stroke-width="1" opacity="1"></path><path fill="none" d="M 56 280.5 L 590 280.5" stroke="#D8D8D8" stroke-width="1" opacity="1"></path><path fill="none" d="M 56 233.5 L 590 233.5" stroke="#D8D8D8" stroke-width="1" opacity="1"></path><path fill="none" d="M 56 187.5 L 590 187.5" stroke="#D8D8D8" stroke-width="1" opacity="1"></path><path fill="none" d="M 56 140.5 L 590 140.5" stroke="#D8D8D8" stroke-width="1" opacity="1"></path><path fill="none" d="M 56 93.5 L 590 93.5" stroke="#D8D8D8" stroke-width="1" opacity="1"></path><path fill="none" d="M 56 45.5 L 590 45.5" stroke="#D8D8D8" stroke-width="1" opacity="1"></path></g><g class="highcharts-axis"><path fill="none" d="M 189.5 327 L 189.5 337" stroke="#C0D0E0" stroke-width="1" opacity="1"></path><path fill="none" d="M 322.5 327 L 322.5 337" stroke="#C0D0E0" stroke-width="1" opacity="1"></path><path fill="none" d="M 456.5 327 L 456.5 337" stroke="#C0D0E0" stroke-width="1" opacity="1"></path><path fill="none" d="M 590.5 327 L 590.5 337" stroke="#C0D0E0" stroke-width="1" opacity="1"></path><path fill="none" d="M 55.5 327 L 55.5 337" stroke="#C0D0E0" stroke-width="1" opacity="1"></path><path fill="none" d="M 56 327.5 L 590 327.5" stroke="#C0D0E0" stroke-width="1"></path></g><g class="highcharts-axis"><text x="24.046875" text-anchor="middle" transform="translate(0,0) rotate(270 24.046875 186.5)" class=" highcharts-yaxis-title" style="color:#707070;fill:#707070;" y="186.5">Values</text></g><g class="highcharts-series-group"><g class="highcharts-series highcharts-series-0" transform="translate(56,46) scale(1 1)" clip-path="url(#highcharts-5)"><path fill="none" d="M 66.75 234.16666666666666 L 200.25 140.5 L 333.75 187.33333333333331 L 467.25 93.66666666666666" stroke="#7cb5ec" stroke-width="2" stroke-linejoin="round" stroke-linecap="round"></path></g><g class="highcharts-markers highcharts-series-0" transform="translate(56,46) scale(1 1)" clip-path="none"><path fill="#7cb5ec" d="M 467 89.66666666666666 C 472.328 89.66666666666666 472.328 97.66666666666666 467 97.66666666666666 C 461.672 97.66666666666666 461.672 89.66666666666666 467 89.66666666666666 Z"></path><path fill="#7cb5ec" d="M 333 183.33333333333331 C 338.328 183.33333333333331 338.328 191.33333333333331 333 191.33333333333331 C 327.672 191.33333333333331 327.672 183.33333333333331 333 183.33333333333331 Z"></path><path fill="#7cb5ec" d="M 200 136.5 C 205.328 136.5 205.328 144.5 200 144.5 C 194.672 144.5 194.672 136.5 200 136.5 Z"></path><path fill="#7cb5ec" d="M 66 230.16666666666666 C 71.328 230.16666666666666 71.328 238.16666666666666 66 238.16666666666666 C 60.672 238.16666666666666 60.672 230.16666666666666 66 230.16666666666666 Z"></path></g><g class="highcharts-series highcharts-series-1" transform="translate(56,46) scale(1 1)" clip-path="url(#highcharts-5)"><path fill="none" d="M 66.75 46.833333333333314 L 200.25 140.5 L 333.75 93.66666666666666 L 467.25 187.33333333333331" stroke="#434348" stroke-width="2" stroke-linejoin="round" stroke-linecap="round"></path></g><g class="highcharts-markers highcharts-series-1" transform="translate(56,46) scale(1 1)" clip-path="none"><path fill="#434348" d="M 467 183.33333333333331 L 471 187.33333333333331 467 191.33333333333331 463 187.33333333333331 Z"></path><path fill="#434348" d="M 333 89.66666666666666 L 337 93.66666666666666 333 97.66666666666666 329 93.66666666666666 Z"></path><path fill="#434348" d="M 200 136.5 L 204 140.5 200 144.5 196 140.5 Z"></path><path fill="#434348" d="M 66 42.833333333333314 L 70 46.833333333333314 66 50.833333333333314 62 46.833333333333314 Z"></path></g></g><text x="300" text-anchor="middle" class="highcharts-title" style="color:#333333;font-size:18px;fill:#333333;width:536px;" y="24"><tspan>Chart title</tspan></text><g class="highcharts-legend" transform="translate(212,360)"><g><g><g class="highcharts-legend-item" transform="translate(8,3)"><path fill="none" d="M 0 11 L 16 11" stroke="#7cb5ec" stroke-width="2"></path><path fill="#7cb5ec" d="M 8 7 C 13.328 7 13.328 15 8 15 C 2.6719999999999997 15 2.6719999999999997 7 8 7 Z"></path><text x="21" style="color:#333333;font-size:12px;font-weight:bold;cursor:pointer;fill:#333333;" text-anchor="start" y="15"><tspan>Series 1</tspan></text></g><g class="highcharts-legend-item" transform="translate(97.890625,3)"><path fill="none" d="M 0 11 L 16 11" stroke="#434348" stroke-width="2"></path><path fill="#434348" d="M 8 7 L 12 11 8 15 4 11 Z"></path><text x="21" y="15" style="color:#333333;font-size:12px;font-weight:bold;cursor:pointer;fill:#333333;" text-anchor="start"><tspan>Series 2</tspan></text></g></g></g></g><g class="highcharts-axis-labels highcharts-xaxis-labels"><text x="122.75" style="color:#606060;cursor:default;font-size:11px;fill:#606060;width:135px;text-overflow:clip;" text-anchor="middle" transform="translate(0,0)" y="346" opacity="1"><tspan>Jan</tspan></text><text x="256.25" style="color:#606060;cursor:default;font-size:11px;fill:#606060;width:135px;text-overflow:clip;" text-anchor="middle" transform="translate(0,0)" y="346" opacity="1"><tspan>Feb</tspan></text><text x="389.75" style="color:#606060;cursor:default;font-size:11px;fill:#606060;width:135px;text-overflow:clip;" text-anchor="middle" transform="translate(0,0)" y="346" opacity="1"><tspan>Mar</tspan></text><text x="523.25" style="color:#606060;cursor:default;font-size:11px;fill:#606060;width:135px;text-overflow:clip;" text-anchor="middle" transform="translate(0,0)" y="346" opacity="1"><tspan>Apr</tspan></text></g><g class="highcharts-axis-labels highcharts-yaxis-labels"><text x="41" style="color:#606060;cursor:default;font-size:11px;fill:#606060;width:188px;text-overflow:clip;" text-anchor="end" transform="translate(0,0)" y="332" opacity="1"><tspan>0</tspan></text><text x="41" style="color:#606060;cursor:default;font-size:11px;fill:#606060;width:188px;text-overflow:clip;" text-anchor="end" transform="translate(0,0)" y="285" opacity="1"><tspan>1</tspan></text><text x="41" style="color:#606060;cursor:default;font-size:11px;fill:#606060;width:188px;text-overflow:clip;" text-anchor="end" transform="translate(0,0)" y="238" opacity="1"><tspan>2</tspan></text><text x="41" style="color:#606060;cursor:default;font-size:11px;fill:#606060;width:188px;text-overflow:clip;" text-anchor="end" transform="translate(0,0)" y="191" opacity="1"><tspan>3</tspan></text><text x="41" style="color:#606060;cursor:default;font-size:11px;fill:#606060;width:188px;text-overflow:clip;" text-anchor="end" transform="translate(0,0)" y="144" opacity="1"><tspan>4</tspan></text><text x="41" style="color:#606060;cursor:default;font-size:11px;fill:#606060;width:188px;text-overflow:clip;" text-anchor="end" transform="translate(0,0)" y="97" opacity="1"><tspan>5</tspan></text><text x="41" style="color:#606060;cursor:default;font-size:11px;fill:#606060;width:188px;text-overflow:clip;" text-anchor="end" transform="translate(0,0)" y="51" opacity="1"><tspan>6</tspan></text></g><g class="highcharts-tooltip" display="none" style="cursor:default;padding:0;pointer-events:none;white-space:nowrap;" transform="translate(0,0)"><path fill="none" d="M 3.5 0.5 L 13.5 0.5 C 16.5 0.5 16.5 0.5 16.5 3.5 L 16.5 13.5 C 16.5 16.5 16.5 16.5 13.5 16.5 L 3.5 16.5 C 0.5 16.5 0.5 16.5 0.5 13.5 L 0.5 3.5 C 0.5 0.5 0.5 0.5 3.5 0.5"  stroke="black" stroke-opacity="0.049999999999999996" stroke-width="5" transform="translate(1, 1)"></path><path fill="none" d="M 3.5 0.5 L 13.5 0.5 C 16.5 0.5 16.5 0.5 16.5 3.5 L 16.5 13.5 C 16.5 16.5 16.5 16.5 13.5 16.5 L 3.5 16.5 C 0.5 16.5 0.5 16.5 0.5 13.5 L 0.5 3.5 C 0.5 0.5 0.5 0.5 3.5 0.5"  stroke="black" stroke-opacity="0.09999999999999999" stroke-width="3" transform="translate(1, 1)"></path><path fill="none" d="M 3.5 0.5 L 13.5 0.5 C 16.5 0.5 16.5 0.5 16.5 3.5 L 16.5 13.5 C 16.5 16.5 16.5 16.5 13.5 16.5 L 3.5 16.5 C 0.5 16.5 0.5 16.5 0.5 13.5 L 0.5 3.5 C 0.5 0.5 0.5 0.5 3.5 0.5"  stroke="black" stroke-opacity="0.15" stroke-width="1" transform="translate(1, 1)"></path><path fill="rgb(249, 249, 249)" fill-opacity=" .85" d="M 3.5 0.5 L 13.5 0.5 C 16.5 0.5 16.5 0.5 16.5 3.5 L 16.5 13.5 C 16.5 16.5 16.5 16.5 13.5 16.5 L 3.5 16.5 C 0.5 16.5 0.5 16.5 0.5 13.5 L 0.5 3.5 C 0.5 0.5 0.5 0.5 3.5 0.5"></path><text x="8" style="font-size:12px;color:#333333;fill:#333333;" y="20"></text></g><text x="590" text-anchor="end" style="cursor:pointer;color:#909090;font-size:9px;fill:#909090;" y="395">Highcharts.com</text></svg>