<svg version="1.1" class="highcharts-root" style="font-family: &quot;Lucida Grande&quot;, &quot;Lucida Sans Unicode&quot;, Arial, Helvetica, sans-serif; font-size: 12px;" xmlns="http://www.w3.org/2000/svg" width="600" height="400" viewBox="0 0 600 400" aria-hidden="false" aria-label="Interactive chart"><desc aria-hidden="true">Created with Highcharts 10.2.1</desc><defs aria-hidden="true"><clipPath id="highcharts-ghbf6ti-13-"><rect x="0" y="0" width="509" height="254" fill="none"></rect></clipPath><clipPath id="highcharts-ghbf6ti-112-"><rect x="0" y="0" width="509" height="254" fill="none"></rect></clipPath><clipPath id="highcharts-ghbf6ti-211-"><rect x="81" y="71" width="509" height="254" fill="none"></rect></clipPath></defs><rect fill="#ffffff" class="highcharts-background" x="0" y="0" width="600" height="400" rx="0" ry="0" aria-hidden="true"></rect><rect fill="none" class="highcharts-plot-background" x="81" y="71" width="509" height="254" aria-hidden="true"></rect><g class="highcharts-pane-group" data-z-index="0" aria-hidden="true"></g><g class="highcharts-grid highcharts-xaxis-grid" data-z-index="1" aria-hidden="true"><path fill="none" stroke-dasharray="none" data-z-index="1" class="highcharts-grid-line" d="M 183.5 71 L 183.5 325" opacity="1"></path><path fill="none" stroke-dasharray="none" data-z-index="1" class="highcharts-grid-line" d="M 286.5 71 L 286.5 325" opacity="1"></path><path fill="none" stroke-dasharray="none" data-z-index="1" class="highcharts-grid-line" d="M 389.5 71 L 389.5 325" opacity="1"></path><path fill="none" stroke-dasharray="none" data-z-index="1" class="highcharts-grid-line" d="M 491.5 71 L 491.5 325" opacity="1"></path></g><g class="highcharts-grid highcharts-yaxis-grid" data-z-index="1" aria-hidden="true"><path fill="none" stroke="#e6e6e6" stroke-width="1" stroke-dasharray="none" data-z-index="1" class="highcharts-grid-line" d="M 81 325.5 L 590 325.5" opacity="1"></path><path fill="none" stroke="#e6e6e6" stroke-width="1" stroke-dasharray="none" data-z-index="1" class="highcharts-grid-line" d="M 81 262.5 L 590 262.5" opacity="1"></path><path fill="none" stroke="#e6e6e6" stroke-width="1" stroke-dasharray="none" data-z-index="1" class="highcharts-grid-line" d="M 81 198.5 L 590 198.5" opacity="1"></path><path fill="none" stroke="#e6e6e6" stroke-width="1" stroke-dasharray="none" data-z-index="1" class="highcharts-grid-line" d="M 81 135.5 L 590 135.5" opacity="1"></path><path fill="none" stroke="#e6e6e6" stroke-width="1" stroke-dasharray="none" data-z-index="1" class="highcharts-grid-line" d="M 81 70.5 L 590 70.5" opacity="1"></path></g><rect fill="none" class="highcharts-plot-border" data-z-index="1" x="81" y="71" width="509" height="254" aria-hidden="true"></rect><g class="highcharts-axis highcharts-xaxis" data-z-index="2" aria-hidden="true"><path fill="none" class="highcharts-tick" stroke="#ccd6eb" stroke-width="1" d="M 183.5 325 L 183.5 335" opacity="1"></path><path fill="none" class="highcharts-tick" stroke="#ccd6eb" stroke-width="1" d="M 286.5 325 L 286.5 335" opacity="1"></path><path fill="none" class="highcharts-tick" stroke="#ccd6eb" stroke-width="1" d="M 389.5 325 L 389.5 335" opacity="1"></path><path fill="none" class="highcharts-tick" stroke="#ccd6eb" stroke-width="1" d="M 491.5 325 L 491.5 335" opacity="1"></path><path fill="none" class="highcharts-axis-line" stroke="#ccd6eb" stroke-width="1" data-z-index="7" d="M 81 325.5 L 590 325.5"></path></g><g class="highcharts-axis highcharts-yaxis" data-z-index="2" aria-hidden="true"><text x="26.13330078125" data-z-index="7" text-anchor="middle" transform="translate(0,0) rotate(270 26.13330078125 198)" class="highcharts-axis-title" style="color: rgb(102, 102, 102); fill: rgb(102, 102, 102);" y="198">Values</text><path fill="none" class="highcharts-axis-line" data-z-index="7" d="M 81 71 L 81 325"></path></g><g class="highcharts-series-group" data-z-index="3" aria-hidden="false"><g class="highcharts-series highcharts-series-0 highcharts-line-series highcharts-color-0" data-z-index="0.1" opacity="1" transform="translate(81,71) scale(1 1)" clip-path="url(#highcharts-ghbf6ti-112-)" aria-hidden="false"><path fill="none" d="M 4.9901960784314 208.7626 L 10.134728118051 208.026 L 15.279260157671 207.3148 L 20.423792197291 206.8576 L 25.568324236911 206.375 L 30.712856276531 205.9178 L 35.857388316151 205.4606 L 41.001920355771 204.978 L 46.146452395391 204.2668 L 51.290984435011 203.8096 L 56.435516474631 203.327 L 61.580048514251 202.8698 L 66.724580553871 202.4126 L 71.869112593491 201.676 L 77.013644633111 201.041 L 82.158176672731 200.5838 L 87.302708712351 199.7456 L 92.447240751971 199.136 L 97.591772791591 198.3486 L 102.73630483121 197.5358 L 107.88083687083 196.7738 L 113.02536891045 196.0118 L 118.16990095007 195.3006 L 123.31443298969 194.36079999999998 L 128.45896502931 193.7766 L 133.60349706893 192.659 L 138.74802910855 191.9478 L 143.89256114817 191.2366 L 149.03709318779 190.5 L 154.18162522741 189.53480000000002 L 159.32615726703 188.77280000000002 L 164.47068930665 188.087 L 169.61522134627 187.4266 L 174.75975338589 186.2328 L 179.90428542551 185.6486 L 185.04881746513 184.8358 L 190.19334950475 183.89600000000002 L 195.33788154437 182.753 L 200.48241358399 181.864 L 205.62694562361 180.848 L 210.77147766323 180.0606 L 215.91600970285 178.816 L 221.06054174247 177.77460000000002 L 226.20507378209 176.40300000000002 L 231.34960582171 175.2346 L 236.49413786133 173.91379999999998 L 241.63866990095 172.5168 L 246.78320194057 171.4246 L 251.92773398019 169.926 L 257.07226601981 168.402 L 262.21679805943 166.9796 L 267.36133009905 165.4048 L 272.50586213867 164.0078 L 277.65039417829 162.433 L 282.79492621791 160.655 L 287.93945825753 159.2326 L 293.08399029715 157.7086 L 298.22852233677 155.829 L 303.37305437639 154.0256 L 308.51758641601 152.1968 L 313.66211845563 150.24099999999999 L 318.80665049525 148.1328 L 323.95118253487 146.17700000000002 L 329.09571457449 144.19580000000002 L 334.24024661411 142.16379999999998 L 339.38477865373 140.1318 L 344.52931069335 138.0236 L 349.67384273297 136.144 L 354.81837477259 133.6548 L 359.96290681221 131.4958 L 365.10743885183 128.4986 L 370.25197089145 126.1618 L 375.39650293107 123.7996 L 380.54103497069 121.666 L 385.68556701031 118.9736 L 390.83009904993 115.57 L 395.97463108955 111.8108 L 401.11916312917 107.28960000000001 L 406.26369516879 102.7938 L 411.40822720841 98.09479999999999 L 416.55275924803 93.726 L 421.69729128765 89.33179999999999 L 426.84182332727 84.6328 L 431.98635536689 80.49260000000001 L 437.13088740651 74.7268 L 442.27541944613 69.4436 L 447.41995148575 63.93180000000001 L 452.56448352537 59.48679999999999 L 457.70901556499 55.346599999999995 L 462.85354760461 50.673 L 467.99807964423 46.27879999999999 L 473.14261168385 42.08779999999999 L 478.28714372347 37.43960000000001 L 483.43167576309 33.24860000000001 L 488.57620780271 28.87979999999999 L 493.72073984233 24.510999999999996 L 498.86527188195 20.193000000000012 L 504.00980392157 15.84960000000001" class="highcharts-graph" data-z-index="1" stroke="#7cb5ec" stroke-width="2" stroke-linejoin="round" stroke-linecap="round" aria-hidden="false" role="region" tabindex="-1" aria-label="brutto-mnd, line 1 of 2 with 98 data points." style="outline: none;"></path><path fill="none" d="M 4.9901960784314 208.7626 L 10.134728118051 208.026 L 15.279260157671 207.3148 L 20.423792197291 206.8576 L 25.568324236911 206.375 L 30.712856276531 205.9178 L 35.857388316151 205.4606 L 41.001920355771 204.978 L 46.146452395391 204.2668 L 51.290984435011 203.8096 L 56.435516474631 203.327 L 61.580048514251 202.8698 L 66.724580553871 202.4126 L 71.869112593491 201.676 L 77.013644633111 201.041 L 82.158176672731 200.5838 L 87.302708712351 199.7456 L 92.447240751971 199.136 L 97.591772791591 198.3486 L 102.73630483121 197.5358 L 107.88083687083 196.7738 L 113.02536891045 196.0118 L 118.16990095007 195.3006 L 123.31443298969 194.36079999999998 L 128.45896502931 193.7766 L 133.60349706893 192.659 L 138.74802910855 191.9478 L 143.89256114817 191.2366 L 149.03709318779 190.5 L 154.18162522741 189.53480000000002 L 159.32615726703 188.77280000000002 L 164.47068930665 188.087 L 169.61522134627 187.4266 L 174.75975338589 186.2328 L 179.90428542551 185.6486 L 185.04881746513 184.8358 L 190.19334950475 183.89600000000002 L 195.33788154437 182.753 L 200.48241358399 181.864 L 205.62694562361 180.848 L 210.77147766323 180.0606 L 215.91600970285 178.816 L 221.06054174247 177.77460000000002 L 226.20507378209 176.40300000000002 L 231.34960582171 175.2346 L 236.49413786133 173.91379999999998 L 241.63866990095 172.5168 L 246.78320194057 171.4246 L 251.92773398019 169.926 L 257.07226601981 168.402 L 262.21679805943 166.9796 L 267.36133009905 165.4048 L 272.50586213867 164.0078 L 277.65039417829 162.433 L 282.79492621791 160.655 L 287.93945825753 159.2326 L 293.08399029715 157.7086 L 298.22852233677 155.829 L 303.37305437639 154.0256 L 308.51758641601 152.1968 L 313.66211845563 150.24099999999999 L 318.80665049525 148.1328 L 323.95118253487 146.17700000000002 L 329.09571457449 144.19580000000002 L 334.24024661411 142.16379999999998 L 339.38477865373 140.1318 L 344.52931069335 138.0236 L 349.67384273297 136.144 L 354.81837477259 133.6548 L 359.96290681221 131.4958 L 365.10743885183 128.4986 L 370.25197089145 126.1618 L 375.39650293107 123.7996 L 380.54103497069 121.666 L 385.68556701031 118.9736 L 390.83009904993 115.57 L 395.97463108955 111.8108 L 401.11916312917 107.28960000000001 L 406.26369516879 102.7938 L 411.40822720841 98.09479999999999 L 416.55275924803 93.726 L 421.69729128765 89.33179999999999 L 426.84182332727 84.6328 L 431.98635536689 80.49260000000001 L 437.13088740651 74.7268 L 442.27541944613 69.4436 L 447.41995148575 63.93180000000001 L 452.56448352537 59.48679999999999 L 457.70901556499 55.346599999999995 L 462.85354760461 50.673 L 467.99807964423 46.27879999999999 L 473.14261168385 42.08779999999999 L 478.28714372347 37.43960000000001 L 483.43167576309 33.24860000000001 L 488.57620780271 28.87979999999999 L 493.72073984233 24.510999999999996 L 498.86527188195 20.193000000000012 L 504.00980392157 15.84960000000001" data-z-index="2" class="highcharts-tracker-line" stroke-linecap="round" stroke-linejoin="round" stroke="rgba(192,192,192,0.0001)" stroke-width="22" aria-hidden="true"></path></g><g class="highcharts-markers highcharts-series-0 highcharts-line-series highcharts-color-0 highcharts-tracker" data-z-index="0.1" opacity="1" transform="translate(81,71) scale(1 1)" clip-path="none" aria-hidden="true"></g><g class="highcharts-series highcharts-series-1 highcharts-line-series highcharts-color-1" data-z-index="0.1" opacity="1" transform="translate(81,71) scale(1 1)" clip-path="url(#highcharts-ghbf6ti-112-)" aria-hidden="false"><path fill="none" d="M 4.9901960784314 236.22 L 10.134728118051 254 L 15.279260157671 243.84 L 20.423792197291 236.22 L 25.568324236911 254 L 30.712856276531 243.84 L 35.857388316151 236.22 L 41.001920355771 254 L 46.146452395391 243.84 L 51.290984435011 236.22 L 56.435516474631 254 L 61.580048514251 243.84 L 66.724580553871 236.22 L 71.869112593491 254 L 77.013644633111 254 L 82.158176672731 243.84 L 87.302708712351 236.22 L 92.447240751971 254 L 97.591772791591 236.22 L 102.73630483121 243.84 L 107.88083687083 243.84 L 113.02536891045 243.84 L 118.16990095007 236.22 L 123.31443298969 243.84 L 128.45896502931 236.22 L 133.60349706893 254 L 138.74802910855 243.84 L 143.89256114817 236.22 L 149.03709318779 254 L 154.18162522741 243.84 L 159.32615726703 243.84 L 164.47068930665 254 L 169.61522134627 236.22 L 174.75975338589 243.84 L 179.90428542551 236.22 L 185.04881746513 243.84 L 190.19334950475 254 L 195.33788154437 254 L 200.48241358399 254 L 205.62694562361 254 L 210.77147766323 236.22 L 215.91600970285 254 L 221.06054174247 236.22 L 226.20507378209 254 L 231.34960582171 236.22 L 236.49413786133 243.84 L 241.63866990095 243.84 L 246.78320194057 236.22 L 251.92773398019 254 L 257.07226601981 254 L 262.21679805943 236.22 L 267.36133009905 243.84 L 272.50586213867 243.84 L 277.65039417829 254 L 282.79492621791 254 L 287.93945825753 236.22 L 293.08399029715 236.22 L 298.22852233677 254 L 303.37305437639 236.22 L 308.51758641601 243.84 L 313.66211845563 254 L 318.80665049525 243.84 L 323.95118253487 254 L 329.09571457449 243.84 L 334.24024661411 243.84 L 339.38477865373 243.84 L 344.52931069335 236.22 L 349.67384273297 254 L 354.81837477259 243.84 L 359.96290681221 243.84 L 365.10743885183 236.22 L 370.25197089145 243.84 L 375.39650293107 236.22 L 380.54103497069 254 L 385.68556701031 236.22 L 390.83009904993 254 L 395.97463108955 243.84 L 401.11916312917 236.22 L 406.26369516879 243.84 L 411.40822720841 243.84 L 416.55275924803 254 L 421.69729128765 243.84 L 426.84182332727 243.84 L 431.98635536689 236.22 L 437.13088740651 243.84 L 442.27541944613 236.22 L 447.41995148575 243.84 L 452.56448352537 243.84 L 457.70901556499 236.22 L 462.85354760461 254 L 467.99807964423 243.84 L 473.14261168385 243.84 L 478.28714372347 236.22 L 483.43167576309 236.22 L 488.57620780271 243.84 L 493.72073984233 254 L 498.86527188195 254 L 504.00980392157 236.22" class="highcharts-graph" data-z-index="1" stroke="#434348" stroke-width="2" stroke-linejoin="round" stroke-linecap="round" aria-hidden="false" role="region" tabindex="-1" aria-label="Series 2, line 2 of 2 with 98 data points." style="outline: none;"></path><path fill="none" d="M 4.9901960784314 236.22 L 10.134728118051 254 L 15.279260157671 243.84 L 20.423792197291 236.22 L 25.568324236911 254 L 30.712856276531 243.84 L 35.857388316151 236.22 L 41.001920355771 254 L 46.146452395391 243.84 L 51.290984435011 236.22 L 56.435516474631 254 L 61.580048514251 243.84 L 66.724580553871 236.22 L 71.869112593491 254 L 77.013644633111 254 L 82.158176672731 243.84 L 87.302708712351 236.22 L 92.447240751971 254 L 97.591772791591 236.22 L 102.73630483121 243.84 L 107.88083687083 243.84 L 113.02536891045 243.84 L 118.16990095007 236.22 L 123.31443298969 243.84 L 128.45896502931 236.22 L 133.60349706893 254 L 138.74802910855 243.84 L 143.89256114817 236.22 L 149.03709318779 254 L 154.18162522741 243.84 L 159.32615726703 243.84 L 164.47068930665 254 L 169.61522134627 236.22 L 174.75975338589 243.84 L 179.90428542551 236.22 L 185.04881746513 243.84 L 190.19334950475 254 L 195.33788154437 254 L 200.48241358399 254 L 205.62694562361 254 L 210.77147766323 236.22 L 215.91600970285 254 L 221.06054174247 236.22 L 226.20507378209 254 L 231.34960582171 236.22 L 236.49413786133 243.84 L 241.63866990095 243.84 L 246.78320194057 236.22 L 251.92773398019 254 L 257.07226601981 254 L 262.21679805943 236.22 L 267.36133009905 243.84 L 272.50586213867 243.84 L 277.65039417829 254 L 282.79492621791 254 L 287.93945825753 236.22 L 293.08399029715 236.22 L 298.22852233677 254 L 303.37305437639 236.22 L 308.51758641601 243.84 L 313.66211845563 254 L 318.80665049525 243.84 L 323.95118253487 254 L 329.09571457449 243.84 L 334.24024661411 243.84 L 339.38477865373 243.84 L 344.52931069335 236.22 L 349.67384273297 254 L 354.81837477259 243.84 L 359.96290681221 243.84 L 365.10743885183 236.22 L 370.25197089145 243.84 L 375.39650293107 236.22 L 380.54103497069 254 L 385.68556701031 236.22 L 390.83009904993 254 L 395.97463108955 243.84 L 401.11916312917 236.22 L 406.26369516879 243.84 L 411.40822720841 243.84 L 416.55275924803 254 L 421.69729128765 243.84 L 426.84182332727 243.84 L 431.98635536689 236.22 L 437.13088740651 243.84 L 442.27541944613 236.22 L 447.41995148575 243.84 L 452.56448352537 243.84 L 457.70901556499 236.22 L 462.85354760461 254 L 467.99807964423 243.84 L 473.14261168385 243.84 L 478.28714372347 236.22 L 483.43167576309 236.22 L 488.57620780271 243.84 L 493.72073984233 254 L 498.86527188195 254 L 504.00980392157 236.22" data-z-index="2" class="highcharts-tracker-line" stroke-linecap="round" stroke-linejoin="round" stroke="rgba(192,192,192,0.0001)" stroke-width="22" aria-hidden="true"></path></g><g class="highcharts-markers highcharts-series-1 highcharts-line-series highcharts-color-1 highcharts-tracker" data-z-index="0.1" opacity="1" transform="translate(81,71) scale(1 1)" clip-path="none" aria-hidden="true"></g></g><text x="300" text-anchor="middle" class="highcharts-title" data-z-index="4" style="color: rgb(51, 51, 51); font-size: 18px; fill: rgb(51, 51, 51);" y="24" aria-hidden="true">From SVG infile</text><text x="300" text-anchor="middle" class="highcharts-subtitle" data-z-index="4" style="color: rgb(102, 102, 102); fill: rgb(102, 102, 102);" y="52" aria-hidden="true">Bigger SVG</text><text x="10" text-anchor="start" class="highcharts-caption" data-z-index="4" style="color: rgb(102, 102, 102); fill: rgb(102, 102, 102);" y="397" aria-hidden="true"></text><g class="highcharts-legend highcharts-no-tooltip" data-z-index="7" transform="translate(202,359)" aria-hidden="true"><rect fill="none" class="highcharts-legend-box" rx="0" ry="0" x="0" y="0" width="195" height="26"></rect><g data-z-index="1"><g><g class="highcharts-legend-item highcharts-line-series highcharts-color-0 highcharts-series-0" data-z-index="1" transform="translate(8,3)"><path fill="none" d="M 0 11 L 16 11" class="highcharts-graph" stroke="#7cb5ec" stroke-width="2"></path><path fill="#7cb5ec" d="M 8 15 A 4 4 0 1 1 8.003999999333336 14.999998000000167 Z" class="highcharts-point" opacity="1"></path><text x="21" text-anchor="start" data-z-index="2" y="15" style="color: rgb(51, 51, 51); cursor: pointer; font-size: 12px; font-weight: bold; fill: rgb(51, 51, 51);">brutto-mnd</text></g><g class="highcharts-legend-item highcharts-line-series highcharts-color-1 highcharts-series-1" data-z-index="1" transform="translate(119.8515625,3)"><path fill="none" d="M 0 11 L 16 11" class="highcharts-graph" stroke="#434348" stroke-width="2"></path><path fill="#434348" d="M 8 7 L 12 11 L 8 15 L 4 11 Z" class="highcharts-point" opacity="1"></path><text x="21" y="15" text-anchor="start" data-z-index="2" style="color: rgb(51, 51, 51); cursor: pointer; font-size: 12px; font-weight: bold; fill: rgb(51, 51, 51);">Series 2</text></g></g></g></g><g class="highcharts-axis-labels highcharts-xaxis-labels" data-z-index="7" aria-hidden="true"><text x="183.73630483121" text-anchor="middle" transform="translate(0,0)" style="color: rgb(102, 102, 102); cursor: default; font-size: 11px; fill: rgb(102, 102, 102);" y="344" opacity="1">20</text><text x="286.62694562361" text-anchor="middle" transform="translate(0,0)" style="color: rgb(102, 102, 102); cursor: default; font-size: 11px; fill: rgb(102, 102, 102);" y="344" opacity="1">40</text><text x="389.51758641601" text-anchor="middle" transform="translate(0,0)" style="color: rgb(102, 102, 102); cursor: default; font-size: 11px; fill: rgb(102, 102, 102);" y="344" opacity="1">60</text><text x="492.40822720841" text-anchor="middle" transform="translate(0,0)" style="color: rgb(102, 102, 102); cursor: default; font-size: 11px; fill: rgb(102, 102, 102);" y="344" opacity="1">80</text></g><g class="highcharts-axis-labels highcharts-yaxis-labels" data-z-index="7" aria-hidden="true"><text x="66" text-anchor="end" transform="translate(0,0)" style="color: rgb(102, 102, 102); cursor: default; font-size: 11px; fill: rgb(102, 102, 102);" y="329" opacity="1">0</text><text x="66" text-anchor="end" transform="translate(0,0)" style="color: rgb(102, 102, 102); cursor: default; font-size: 11px; fill: rgb(102, 102, 102);" y="266" opacity="1">250</text><text x="66" text-anchor="end" transform="translate(0,0)" style="color: rgb(102, 102, 102); cursor: default; font-size: 11px; fill: rgb(102, 102, 102);" y="202" opacity="1">500</text><text x="66" text-anchor="end" transform="translate(0,0)" style="color: rgb(102, 102, 102); cursor: default; font-size: 11px; fill: rgb(102, 102, 102);" y="139" opacity="1">750</text><text x="66" text-anchor="end" transform="translate(0,0)" style="color: rgb(102, 102, 102); cursor: default; font-size: 11px; fill: rgb(102, 102, 102);" y="75" opacity="1">1000</text></g><text x="590" class="highcharts-credits" text-anchor="end" data-z-index="8" y="395" style="cursor: pointer; color: rgb(153, 153, 153); font-size: 9px; fill: rgb(153, 153, 153);" aria-label="Chart credits: Highcharts.com" aria-hidden="false">Highcharts.com</text><g class="highcharts-control-points" data-z-index="99" clip-path="url(#highcharts-ghbf6ti-211-)" aria-hidden="true"></g></svg>
