<svg xmlns:xlink="http://www.w3.org/1999/xlink" version="1.1" style="font-family:'lucida grande', 'lucida sans unicode', arial, helvetica, sans-serif;font-size:12px;" xmlns="http://www.w3.org/2000/svg" width="600" height="400"><desc>Created with Highstock 4.2.7</desc><defs><clipPath id="highcharts-42"><rect x="0" y="0" width="526" height="265"></rect></clipPath></defs><rect x="0" y="0" width="600" height="400" fill="#FFFFFF" class=" highcharts-background"></rect><g class="highcharts-grid"></g><g class="highcharts-grid"><path fill="none" d="M 64 326.5 L 590 326.5" stroke="#D8D8D8" stroke-width="1" opacity="1"></path><path fill="none" d="M 64 273.5 L 590 273.5" stroke="#D8D8D8" stroke-width="1" opacity="1"></path><path fill="none" d="M 64 220.5 L 590 220.5" stroke="#D8D8D8" stroke-width="1" opacity="1"></path><path fill="none" d="M 64 167.5 L 590 167.5" stroke="#D8D8D8" stroke-width="1" opacity="1"></path><path fill="none" d="M 64 114.5 L 590 114.5" stroke="#D8D8D8" stroke-width="1" opacity="1"></path><path fill="none" d="M 64 60.5 L 590 60.5" stroke="#D8D8D8" stroke-width="1" opacity="1"></path></g><g class="highcharts-axis"><path fill="none" d="M 151.5 326 L 151.5 336" stroke="#C0D0E0" stroke-width="1" opacity="1"></path><path fill="none" d="M 238.5 326 L 238.5 336" stroke="#C0D0E0" stroke-width="1" opacity="1"></path><path fill="none" d="M 326.5 326 L 326.5 336" stroke="#C0D0E0" stroke-width="1" opacity="1"></path><path fill="none" d="M 414.5 326 L 414.5 336" stroke="#C0D0E0" stroke-width="1" opacity="1"></path><path fill="none" d="M 501.5 326 L 501.5 336" stroke="#C0D0E0" stroke-width="1" opacity="1"></path><path fill="none" d="M 590.5 326 L 590.5 336" stroke="#C0D0E0" stroke-width="1" opacity="1"></path><path fill="none" d="M 63.5 326 L 63.5 336" stroke="#C0D0E0" stroke-width="1" opacity="1"></path><path fill="none" d="M 64 326.5 L 590 326.5" stroke="#C0D0E0" stroke-width="1"></path></g><g class="highcharts-axis"><text x="25.09375" text-anchor="middle" transform="translate(0,0) rotate(270 25.09375 193.5)" class=" highcharts-yaxis-title" style="color:#707070;fill:#707070;" y="193.5">Values</text></g><g class="highcharts-series-group"><g class="highcharts-series highcharts-series-0" transform="translate(64,61) scale(1 1)" clip-path="url(#highcharts-42)"><path fill="none" d="M 43.833333333333 26.5 L 131.5 122.96000000000001 L 219.16666666667 197.16 L 306.83333333333 219.95 L 394.5 232.14 L 482.16666666667 261.29" stroke="#7cb5ec" stroke-width="2" stroke-linejoin="round" stroke-linecap="round"></path></g><g class="highcharts-markers highcharts-series-0" transform="translate(64,61) scale(1 1)" clip-path="none"><path fill="#7cb5ec" d="M 482 257.29 C 487.328 257.29 487.328 265.29 482 265.29 C 476.672 265.29 476.672 257.29 482 257.29 Z"></path><path fill="#7cb5ec" d="M 394 228.14 C 399.328 228.14 399.328 236.14 394 236.14 C 388.672 236.14 388.672 228.14 394 228.14 Z"></path><path fill="#7cb5ec" d="M 306 215.95 C 311.328 215.95 311.328 223.95 306 223.95 C 300.672 223.95 300.672 215.95 306 215.95 Z"></path><path fill="#7cb5ec" d="M 219 193.16 C 224.328 193.16 224.328 201.16 219 201.16 C 213.672 201.16 213.672 193.16 219 193.16 Z"></path><path fill="#7cb5ec" d="M 131 118.96000000000001 C 136.328 118.96000000000001 136.328 126.96000000000001 131 126.96000000000001 C 125.672 126.96000000000001 125.672 118.96000000000001 131 118.96000000000001 Z"></path><path fill="#7cb5ec" d="M 43 22.5 C 48.328 22.5 48.328 30.5 43 30.5 C 37.672 30.5 37.672 22.5 43 22.5 Z"></path></g></g><text x="300" text-anchor="middle" class="highcharts-title" style="color:#333333;font-size:18px;fill:#333333;width:536px;" y="24"><tspan>My Chart</tspan></text><text x="300" text-anchor="middle" class="highcharts-subtitle" style="color:#555555;fill:#555555;width:536px;" y="45"><tspan>My Untitled Chart</tspan></text><g class="highcharts-legend" transform="translate(241,359)"><g><g><g class="highcharts-legend-item" transform="translate(8,3)"><path fill="none" d="M 0 11 L 16 11" stroke="#7cb5ec" stroke-width="2"></path><path fill="#7cb5ec" d="M 8 7 C 13.328 7 13.328 15 8 15 C 2.6719999999999997 15 2.6719999999999997 7 8 7 Z"></path><text x="21" style="color:#333333;font-size:12px;font-weight:bold;cursor:pointer;fill:#333333;" text-anchor="start" y="15"><tspan>Market share</tspan></text></g></g></g></g><g class="highcharts-axis-labels highcharts-xaxis-labels"><text x="107.83333333333334" style="color:#606060;cursor:default;font-size:11px;fill:#606060;width:78px;text-overflow:clip;" text-anchor="middle" transform="translate(0,0)" y="345" opacity="1"><tspan>Firefox</tspan></text><text x="195.5" style="color:#606060;cursor:default;font-size:11px;fill:#606060;width:78px;text-overflow:clip;" text-anchor="middle" transform="translate(0,0)" y="345" opacity="1"><tspan>IE</tspan></text><text x="283.1666666666667" style="color:#606060;cursor:default;font-size:11px;fill:#606060;width:78px;text-overflow:clip;" text-anchor="middle" transform="translate(0,0)" y="345" opacity="1"><tspan>Chrome</tspan></text><text x="370.83333333333337" style="color:#606060;cursor:default;font-size:11px;fill:#606060;width:78px;text-overflow:clip;" text-anchor="middle" transform="translate(0,0)" y="345" opacity="1"><tspan>Safari</tspan></text><text x="458.5" style="color:#606060;cursor:default;font-size:11px;fill:#606060;width:78px;text-overflow:clip;" text-anchor="middle" transform="translate(0,0)" y="345" opacity="1"><tspan>Opera</tspan></text><text x="546.1666666666666" style="color:#606060;cursor:default;font-size:11px;fill:#606060;width:78px;text-overflow:clip;" text-anchor="middle" transform="translate(0,0)" y="345" opacity="1"><tspan>Others</tspan></text></g><g class="highcharts-axis-labels highcharts-yaxis-labels"><text x="49" style="color:#606060;cursor:default;font-size:11px;fill:#606060;width:188px;text-overflow:clip;" text-anchor="end" transform="translate(0,0)" y="331" opacity="1"><tspan>0</tspan></text><text x="49" style="color:#606060;cursor:default;font-size:11px;fill:#606060;width:188px;text-overflow:clip;" text-anchor="end" transform="translate(0,0)" y="278" opacity="1"><tspan>10</tspan></text><text x="49" style="color:#606060;cursor:default;font-size:11px;fill:#606060;width:188px;text-overflow:clip;" text-anchor="end" transform="translate(0,0)" y="225" opacity="1"><tspan>20</tspan></text><text x="49" style="color:#606060;cursor:default;font-size:11px;fill:#606060;width:188px;text-overflow:clip;" text-anchor="end" transform="translate(0,0)" y="172" opacity="1"><tspan>30</tspan></text><text x="49" style="color:#606060;cursor:default;font-size:11px;fill:#606060;width:188px;text-overflow:clip;" text-anchor="end" transform="translate(0,0)" y="119" opacity="1"><tspan>40</tspan></text><text x="49" style="color:#606060;cursor:default;font-size:11px;fill:#606060;width:188px;text-overflow:clip;" text-anchor="end" transform="translate(0,0)" y="66" opacity="1"><tspan>50</tspan></text></g><g class="highcharts-tooltip" display="none" style="cursor:default;padding:0;pointer-events:none;white-space:nowrap;" transform="translate(0,0)"><path fill="none" d="M 3.5 0.5 L 13.5 0.5 C 16.5 0.5 16.5 0.5 16.5 3.5 L 16.5 13.5 C 16.5 16.5 16.5 16.5 13.5 16.5 L 3.5 16.5 C 0.5 16.5 0.5 16.5 0.5 13.5 L 0.5 3.5 C 0.5 0.5 0.5 0.5 3.5 0.5"  stroke="black" stroke-opacity="0.049999999999999996" stroke-width="5" transform="translate(1, 1)"></path><path fill="none" d="M 3.5 0.5 L 13.5 0.5 C 16.5 0.5 16.5 0.5 16.5 3.5 L 16.5 13.5 C 16.5 16.5 16.5 16.5 13.5 16.5 L 3.5 16.5 C 0.5 16.5 0.5 16.5 0.5 13.5 L 0.5 3.5 C 0.5 0.5 0.5 0.5 3.5 0.5"  stroke="black" stroke-opacity="0.09999999999999999" stroke-width="3" transform="translate(1, 1)"></path><path fill="none" d="M 3.5 0.5 L 13.5 0.5 C 16.5 0.5 16.5 0.5 16.5 3.5 L 16.5 13.5 C 16.5 16.5 16.5 16.5 13.5 16.5 L 3.5 16.5 C 0.5 16.5 0.5 16.5 0.5 13.5 L 0.5 3.5 C 0.5 0.5 0.5 0.5 3.5 0.5"  stroke="black" stroke-opacity="0.15" stroke-width="1" transform="translate(1, 1)"></path><path fill="rgb(249, 249, 249)" fill-opacity=" .85" d="M 3.5 0.5 L 13.5 0.5 C 16.5 0.5 16.5 0.5 16.5 3.5 L 16.5 13.5 C 16.5 16.5 16.5 16.5 13.5 16.5 L 3.5 16.5 C 0.5 16.5 0.5 16.5 0.5 13.5 L 0.5 3.5 C 0.5 0.5 0.5 0.5 3.5 0.5"></path><text x="8" style="font-size:12px;color:#333333;fill:#333333;" y="20"></text></g><text x="590" text-anchor="end" style="cursor:pointer;color:#909090;font-size:9px;fill:#909090;" y="395">Highcharts.com</text></svg>