<svg xmlns:xlink="http://www.w3.org/1999/xlink" version="1.1" style="font-family:'lucida grande', 'lucida sans unicode', arial, helvetica, sans-serif;font-size:12px;" xmlns="http://www.w3.org/2000/svg" width="600" height="400"><desc>Created with Highstock 4.2.7</desc><defs><clipPath id="highcharts-89"><rect x="0" y="0" width="512" height="265"></rect></clipPath></defs><rect x="0" y="0" width="600" height="400" fill="#FFFFFF" class=" highcharts-background"></rect><g class="highcharts-grid"></g><g class="highcharts-grid"><path fill="none" d="M 78 326.5 L 590 326.5" stroke="#D8D8D8" stroke-width="1" opacity="1"></path><path fill="none" d="M 78 260.5 L 590 260.5" stroke="#D8D8D8" stroke-width="1" opacity="1"></path><path fill="none" d="M 78 194.5 L 590 194.5" stroke="#D8D8D8" stroke-width="1" opacity="1"></path><path fill="none" d="M 78 127.5 L 590 127.5" stroke="#D8D8D8" stroke-width="1" opacity="1"></path><path fill="none" d="M 78 60.5 L 590 60.5" stroke="#D8D8D8" stroke-width="1" opacity="1"></path></g><g class="highcharts-axis"><path fill="none" d="M 180.5 326 L 180.5 336" stroke="#C0D0E0" stroke-width="1" opacity="1"></path><path fill="none" d="M 284.5 326 L 284.5 336" stroke="#C0D0E0" stroke-width="1" opacity="1"></path><path fill="none" d="M 387.5 326 L 387.5 336" stroke="#C0D0E0" stroke-width="1" opacity="1"></path><path fill="none" d="M 491.5 326 L 491.5 336" stroke="#C0D0E0" stroke-width="1" opacity="1"></path><path fill="none" d="M 78 326.5 L 590 326.5" stroke="#C0D0E0" stroke-width="1"></path></g><g class="highcharts-axis"><text x="25.1875" text-anchor="middle" transform="translate(0,0) rotate(270 25.1875 193.5)" class=" highcharts-yaxis-title" style="color:#707070;fill:#707070;" y="193.5">Values</text></g><g class="highcharts-series-group"><g class="highcharts-series highcharts-series-0" transform="translate(78,61) scale(1 1)" clip-path="url(#highcharts-89)"><path fill="none" d="M 5.0196078431373 217.80349999999999 L 10.194461289671 217.035 L 15.369314736204 216.293 L 20.544168182737 215.816 L 25.71902162927 215.3125 L 30.893875075804 214.8355 L 36.068728522337 214.3585 L 41.24358196887 213.855 L 46.418435415403 213.113 L 51.593288861937 212.636 L 56.76814230847 212.1325 L 61.942995755003 211.6555 L 67.117849201536 211.17849999999999 L 72.29270264807 210.41 L 77.467556094603 209.7475 L 82.642409541136 209.2705 L 87.817262987669 208.39600000000002 L 92.992116434203 207.76 L 98.166969880736 206.9385 L 103.34182332727 206.0905 L 108.5166767738 205.2955 L 113.69153022034 204.5005 L 118.86638366687 203.7585 L 124.0412371134 202.778 L 129.21609055994 202.1685 L 134.39094400647 201.0025 L 139.565797453 200.26049999999998 L 144.74065089954 199.51850000000002 L 149.91550434607 198.75 L 155.0903577926 197.743 L 160.26521123913 196.94799999999998 L 165.44006468567 196.23250000000002 L 170.6149181322 195.5435 L 175.78977157873 194.298 L 180.96462502527 193.68849999999998 L 186.1394784718 192.8405 L 191.31433191833 191.86 L 196.48918536487 190.6675 L 201.6640388114 189.74 L 206.83889225793 188.68 L 212.01374570447 187.8585 L 217.188599151 186.56 L 222.36345259753 185.4735 L 227.53830604407 184.0425 L 232.7131594906 182.8235 L 237.88801293713 181.44549999999998 L 243.06286638367 179.988 L 248.2377198302 178.8485 L 253.41257327673 177.285 L 258.58742672327 175.695 L 263.7622801698 174.21099999999998 L 268.93713361633 172.56799999999998 L 274.11198706287 171.1105 L 279.2868405094 169.4675 L 284.46169395593 167.6125 L 289.63654740247 166.12849999999997 L 294.811400849 164.5385 L 299.98625429553 162.5775 L 305.16110774207 160.69599999999997 L 310.3359611886 158.788 L 315.51081463513 156.7475 L 320.68566808167 154.548 L 325.8605215282 152.5075 L 331.03537497473 150.4405 L 336.21022842127 148.32049999999998 L 341.3850818678 146.20049999999998 L 346.55993531433 144.00099999999998 L 351.73478876087 142.04 L 356.9096422074 139.44299999999998 L 362.08449565393 137.1905 L 367.25934910046 134.06349999999998 L 372.434202547 131.6255 L 377.60905599353 129.16099999999997 L 382.78390944006 126.935 L 387.9587628866 124.12599999999998 L 393.13361633313 120.57499999999999 L 398.30846977966 116.65299999999999 L 403.4833232262 111.93599999999998 L 408.65817667273 107.24549999999999 L 413.83303011926 102.34300000000002 L 419.0078835658 97.785 L 424.18273701233 93.2005 L 429.35759045886 88.298 L 434.5324439054 83.9785 L 439.70729735193 77.963 L 444.88215079846 72.451 L 450.057004245 66.7005 L 455.23185769153 62.06299999999999 L 460.40671113806 57.74349999999998 L 465.5815645846 52.86749999999998 L 470.75641803113 48.28299999999999 L 475.93127147766 43.91050000000001 L 481.1061249242 39.06099999999998 L 486.28097837073 34.688499999999976 L 491.45583181726 30.130500000000012 L 496.6306852638 25.57249999999999 L 501.80553871033 21.067499999999995 L 506.98039215686 16.535999999999973" stroke="#7cb5ec" stroke-width="2" stroke-linejoin="round" stroke-linecap="round"></path></g><g class="highcharts-markers highcharts-series-0" transform="translate(78,61) scale(1 1)" clip-path="none"></g><g class="highcharts-series highcharts-series-1" transform="translate(78,61) scale(1 1)" clip-path="url(#highcharts-89)"><path fill="none" d="M 5.0196078431373 246.45 L 10.194461289671 265 L 15.369314736204 254.4 L 20.544168182737 246.45 L 25.71902162927 265 L 30.893875075804 254.4 L 36.068728522337 246.45 L 41.24358196887 265 L 46.418435415403 254.4 L 51.593288861937 246.45 L 56.76814230847 265 L 61.942995755003 254.4 L 67.117849201536 246.45 L 72.29270264807 265 L 77.467556094603 265 L 82.642409541136 254.4 L 87.817262987669 246.45 L 92.992116434203 265 L 98.166969880736 246.45 L 103.34182332727 254.4 L 108.5166767738 254.4 L 113.69153022034 254.4 L 118.86638366687 246.45 L 124.0412371134 254.4 L 129.21609055994 246.45 L 134.39094400647 265 L 139.565797453 254.4 L 144.74065089954 246.45 L 149.91550434607 265 L 155.0903577926 254.4 L 160.26521123913 254.4 L 165.44006468567 265 L 170.6149181322 246.45 L 175.78977157873 254.4 L 180.96462502527 246.45 L 186.1394784718 254.4 L 191.31433191833 265 L 196.48918536487 265 L 201.6640388114 265 L 206.83889225793 265 L 212.01374570447 246.45 L 217.188599151 265 L 222.36345259753 246.45 L 227.53830604407 265 L 232.7131594906 246.45 L 237.88801293713 254.4 L 243.06286638367 254.4 L 248.2377198302 246.45 L 253.41257327673 265 L 258.58742672327 265 L 263.7622801698 246.45 L 268.93713361633 254.4 L 274.11198706287 254.4 L 279.2868405094 265 L 284.46169395593 265 L 289.63654740247 246.45 L 294.811400849 246.45 L 299.98625429553 265 L 305.16110774207 246.45 L 310.3359611886 254.4 L 315.51081463513 265 L 320.68566808167 254.4 L 325.8605215282 265 L 331.03537497473 254.4 L 336.21022842127 254.4 L 341.3850818678 254.4 L 346.55993531433 246.45 L 351.73478876087 265 L 356.9096422074 254.4 L 362.08449565393 254.4 L 367.25934910046 246.45 L 372.434202547 254.4 L 377.60905599353 246.45 L 382.78390944006 265 L 387.9587628866 246.45 L 393.13361633313 265 L 398.30846977966 254.4 L 403.4833232262 246.45 L 408.65817667273 254.4 L 413.83303011926 254.4 L 419.0078835658 265 L 424.18273701233 254.4 L 429.35759045886 254.4 L 434.5324439054 246.45 L 439.70729735193 254.4 L 444.88215079846 246.45 L 450.057004245 254.4 L 455.23185769153 254.4 L 460.40671113806 246.45 L 465.5815645846 265 L 470.75641803113 254.4 L 475.93127147766 254.4 L 481.1061249242 246.45 L 486.28097837073 246.45 L 491.45583181726 254.4 L 496.6306852638 265 L 501.80553871033 265 L 506.98039215686 246.45" stroke="#434348" stroke-width="2" stroke-linejoin="round" stroke-linecap="round"></path></g><g class="highcharts-markers highcharts-series-1" transform="translate(78,61) scale(1 1)" clip-path="none"></g></g><text x="300" text-anchor="middle" class="highcharts-title" style="color:#333333;font-size:18px;fill:#333333;width:536px;" y="24"><tspan>My Chart</tspan></text><text x="300" text-anchor="middle" class="highcharts-subtitle" style="color:#555555;fill:#555555;width:536px;" y="45"><tspan>My Untitled Chart</tspan></text><g class="highcharts-legend" transform="translate(200,359)"><g><g><g class="highcharts-legend-item" transform="translate(8,3)"><path fill="none" d="M 0 11 L 16 11" stroke="#7cb5ec" stroke-width="2"></path><path fill="#7cb5ec" d="M 8 7 C 13.328 7 13.328 15 8 15 C 2.6719999999999997 15 2.6719999999999997 7 8 7 Z"></path><text x="21" style="color:#333333;font-size:12px;font-weight:bold;cursor:pointer;fill:#333333;" text-anchor="start" y="15">brutto-mnd</text></g><g class="highcharts-legend-item" transform="translate(122.796875,3)"><path fill="none" d="M 0 11 L 16 11" stroke="#434348" stroke-width="2"></path><path fill="#434348" d="M 8 7 L 12 11 8 15 4 11 Z"></path><text x="21" y="15" style="color:#333333;font-size:12px;font-weight:bold;cursor:pointer;fill:#333333;" text-anchor="start"><tspan>Series 2</tspan></text></g></g></g></g><g class="highcharts-axis-labels highcharts-xaxis-labels"><text x="181.34182332726905" style="color:#606060;cursor:default;font-size:11px;fill:#606060;width:161px;text-overflow:clip;" text-anchor="middle" transform="translate(0,0)" y="345" opacity="1"><tspan>20</tspan></text><text x="284.8388922579341" style="color:#606060;cursor:default;font-size:11px;fill:#606060;width:161px;text-overflow:clip;" text-anchor="middle" transform="translate(0,0)" y="345" opacity="1"><tspan>40</tspan></text><text x="388.3359611885992" style="color:#606060;cursor:default;font-size:11px;fill:#606060;width:161px;text-overflow:clip;" text-anchor="middle" transform="translate(0,0)" y="345" opacity="1"><tspan>60</tspan></text><text x="491.8330301192642" style="color:#606060;cursor:default;font-size:11px;fill:#606060;width:161px;text-overflow:clip;" text-anchor="middle" transform="translate(0,0)" y="345" opacity="1"><tspan>80</tspan></text></g><g class="highcharts-axis-labels highcharts-yaxis-labels"><text x="63" style="color:#606060;cursor:default;font-size:11px;fill:#606060;width:188px;text-overflow:clip;" text-anchor="end" transform="translate(0,0)" y="331" opacity="1"><tspan>0</tspan></text><text x="63" style="color:#606060;cursor:default;font-size:11px;fill:#606060;width:188px;text-overflow:clip;" text-anchor="end" transform="translate(0,0)" y="264" opacity="1"><tspan>250</tspan></text><text x="63" style="color:#606060;cursor:default;font-size:11px;fill:#606060;width:188px;text-overflow:clip;" text-anchor="end" transform="translate(0,0)" y="198" opacity="1"><tspan>500</tspan></text><text x="63" style="color:#606060;cursor:default;font-size:11px;fill:#606060;width:188px;text-overflow:clip;" text-anchor="end" transform="translate(0,0)" y="132" opacity="1"><tspan>750</tspan></text><text x="63" style="color:#606060;cursor:default;font-size:11px;fill:#606060;width:188px;text-overflow:clip;" text-anchor="end" transform="translate(0,0)" y="66" opacity="1"><tspan>1000</tspan></text></g><g class="highcharts-tooltip" display="none" style="cursor:default;padding:0;pointer-events:none;white-space:nowrap;" transform="translate(0,0)"><path fill="none" d="M 3.5 0.5 L 13.5 0.5 C 16.5 0.5 16.5 0.5 16.5 3.5 L 16.5 13.5 C 16.5 16.5 16.5 16.5 13.5 16.5 L 3.5 16.5 C 0.5 16.5 0.5 16.5 0.5 13.5 L 0.5 3.5 C 0.5 0.5 0.5 0.5 3.5 0.5"  stroke="black" stroke-opacity="0.049999999999999996" stroke-width="5" transform="translate(1, 1)"></path><path fill="none" d="M 3.5 0.5 L 13.5 0.5 C 16.5 0.5 16.5 0.5 16.5 3.5 L 16.5 13.5 C 16.5 16.5 16.5 16.5 13.5 16.5 L 3.5 16.5 C 0.5 16.5 0.5 16.5 0.5 13.5 L 0.5 3.5 C 0.5 0.5 0.5 0.5 3.5 0.5"  stroke="black" stroke-opacity="0.09999999999999999" stroke-width="3" transform="translate(1, 1)"></path><path fill="none" d="M 3.5 0.5 L 13.5 0.5 C 16.5 0.5 16.5 0.5 16.5 3.5 L 16.5 13.5 C 16.5 16.5 16.5 16.5 13.5 16.5 L 3.5 16.5 C 0.5 16.5 0.5 16.5 0.5 13.5 L 0.5 3.5 C 0.5 0.5 0.5 0.5 3.5 0.5"  stroke="black" stroke-opacity="0.15" stroke-width="1" transform="translate(1, 1)"></path><path fill="rgb(249, 249, 249)" fill-opacity=" .85" d="M 3.5 0.5 L 13.5 0.5 C 16.5 0.5 16.5 0.5 16.5 3.5 L 16.5 13.5 C 16.5 16.5 16.5 16.5 13.5 16.5 L 3.5 16.5 C 0.5 16.5 0.5 16.5 0.5 13.5 L 0.5 3.5 C 0.5 0.5 0.5 0.5 3.5 0.5"></path><text x="8" style="font-size:12px;color:#333333;fill:#333333;" y="20"></text></g><text x="590" text-anchor="end" style="cursor:pointer;color:#909090;font-size:9px;fill:#909090;" y="395">Highcharts.com</text></svg>